<svg viewBox="0 0 640 400" data-background-color="#ffffff" preserveAspectRatio="xMidYMid meet" height="400" width="640" xmlns="http://www.w3.org/2000/svg" xmlns:xlink="http://www.w3.org/1999/xlink"><rect width="640" height="400" x="0" y="0" opacity="1" fill="#ffffff" data-fill-palette-color="background" id="background"></rect><g id="tight-bounds" transform="matrix(1,0,0,1,122.24000000000001,146.36583073143623)"><svg viewBox="0 0 395.52 107.26833853712752" height="107.26833853712752" width="395.52"><g><svg viewBox="0 0 553.2221899986258 150.03849404081635" height="107.26833853712752" width="395.52"><g transform="matrix(1,0,0,1,0,20.73614497959185)"><svg viewBox="0 0 395.52 108.56620408163265" height="108.56620408163265" width="395.52"><g><svg viewBox="0 0 395.52 108.56620408163265" height="108.56620408163265" width="395.52"><g><svg viewBox="0 0 395.52 108.56620408163265" height="108.56620408163265" width="395.52"><g transform="matrix(1,0,0,1,0,0)"><svg width="395.52" viewBox="3.700000047683716 -36 146.99000549316406 40.349998474121094" height="108.56620408163265" data-palette-color="#8bc53f"><path d="M10.9 4.35L10.9 4.35Q8.3 4.35 7.33 3.3 6.35 2.25 6.3 0.6L6.3 0.6Q6.3-0.85 6.88-2.88 7.45-4.9 8.1-6.75L8.1-6.75Q9.15-9.9 10.43-13.3 11.7-16.7 13.05-20.05 14.4-23.4 15.68-26.5 16.95-29.6 18.1-32.15L18.1-32.15Q14.7-32.1 12.28-31.98 9.85-31.85 7.88-31.65 5.9-31.45 3.7-31.05L3.7-31.05Q3.9-33 5.58-34.08 7.25-35.15 10.1-35.58 12.95-36 16.6-36L16.6-36Q19.05-36 21.1-35.85 23.15-35.7 25-35.52 26.85-35.35 28.65-35.25L28.65-35.25Q30.2-34.5 30.7-34.3 31.2-34.1 30.95-34.1L30.95-34.1Q29.75-33.2 28.03-32.77 26.3-32.35 24.45-32.25 22.6-32.15 20.9-32.15L20.9-32.15Q18.75-26.9 16.73-20.63 14.7-14.35 12.85-7.7L12.85-7.7Q12.2-5.2 11.73-3.38 11.25-1.55 11-0.05 10.75 1.45 10.75 3L10.75 3Q10.75 3.25 10.78 3.58 10.8 3.9 10.9 4.35ZM26.2 1.9L26.2 1.9Q25.15 1.9 24.65 0.23 24.15-1.45 24.15-3.6L24.15-3.6Q24.15-5.95 24.95-9.2 25.75-12.45 27.05-16.07 28.35-19.7 29.97-23.18 31.6-26.65 33.32-29.48 35.05-32.3 36.6-34 38.15-35.7 39.3-35.7L39.3-35.7Q40.3-35.7 40.8-34.58 41.3-33.45 41.3-32.3L41.3-32.3Q41.3-30.9 40.67-28.93 40.05-26.95 38.95-24.7 37.85-22.45 36.37-20.25 34.9-18.05 33.2-16.25 31.5-14.45 29.65-13.35L29.65-13.35Q29.05-11.75 28.65-10.18 28.25-8.6 28.07-7.15 27.9-5.7 27.9-4.4L27.9-4.4Q27.9-4.05 27.92-3.75 27.95-3.45 28-3.15L28-3.15Q28.35-4.05 28.92-5.53 29.5-7 30.32-8.65 31.15-10.3 32.27-11.8 33.4-13.3 34.85-14.23 36.3-15.15 38.05-15.15L38.05-15.15Q39.65-15.15 40.57-14.43 41.5-13.7 41.87-12.6 42.25-11.5 42.25-10.35L42.25-10.35Q42.25-8.8 41.72-7.38 41.2-5.95 40.67-4.67 40.15-3.4 40.15-2.25L40.15-2.25Q40.15-1.35 40.55-0.95 40.95-0.55 41.55-0.55L41.55-0.55Q42.65-0.55 44.12-1.65 45.6-2.75 47.05-4.58 48.5-6.4 49.5-8.6L49.5-8.6 50.25-7.85Q49.15-5.35 47.62-3.3 46.1-1.25 44.25-0.03 42.4 1.2 40.35 1.2L40.35 1.2Q38.5 1.2 37.55 0.23 36.6-0.75 36.6-2.2L36.6-2.2Q36.6-3.25 36.97-4.53 37.35-5.8 37.7-7.13 38.05-8.45 38.05-9.55L38.05-9.55Q38.05-10.75 37.52-11.25 37-11.75 36.25-11.75L36.25-11.75Q35-11.75 34-10.75 33-9.75 32.17-8.2 31.35-6.65 30.65-4.93 29.95-3.2 29.27-1.63 28.6-0.05 27.85 0.93 27.1 1.9 26.2 1.9ZM30.6-16.15L30.6-16.15Q31.9-17.3 33.15-18.93 34.4-20.55 35.47-22.35 36.55-24.15 37.35-25.85 38.15-27.55 38.62-28.9 39.1-30.25 39.15-31L39.15-31Q39.15-31.1 39.12-31.15 39.1-31.2 39.05-31.2L39.05-31.2Q38.75-31.2 37.75-29.93 36.75-28.65 35.42-26.5 34.1-24.35 32.8-21.65 31.5-18.95 30.6-16.15ZM74.15 1.55L74.15 1.55Q72.25 1.55 71.34 0.43 70.45-0.7 70.45-2.25L70.45-2.25Q70.45-3.45 70.8-4.63 71.15-5.8 71.52-6.95 71.9-8.1 71.9-9.05L71.9-9.05Q71.9-9.95 71.52-10.3 71.15-10.65 70.65-10.65L70.65-10.65Q69.45-10.65 67.95-8.83 66.45-7 64.15-3.6L64.15-3.6Q63.34-2.4 62.7-1.1 62.05 0.2 61.5 1.15L61.5 1.15Q61.09 1.15 60.4 1 59.7 0.85 59.17 0.6 58.65 0.35 58.65-0.05L58.65-0.05Q58.65-0.5 59.15-1.8 59.65-3.1 60.3-4.85 60.95-6.6 61.42-8.33 61.9-10.05 61.9-11.25L61.9-11.25Q61.9-12 61.65-12.43 61.4-12.85 60.8-12.85L60.8-12.85Q59.75-12.85 58.25-11.58 56.75-10.3 55.09-8.25 53.45-6.2 52.02-3.68 50.59-1.15 49.7 1.35L49.7 1.35Q49.15 1.35 48.4 1.15 47.65 0.95 47.09 0.65 46.55 0.35 46.55 0.1L46.55 0.1Q46.55-0.05 46.95-1.45 47.34-2.85 47.92-4.9 48.5-6.95 49.02-9.1 49.55-11.25 49.84-12.9L49.84-12.9Q50.05-13.35 50.9-13.75 51.75-14.15 52.45-14.15L52.45-14.15Q53.15-14.15 53.57-13.75 54-13.35 54-12.65L54-12.65Q54-12.1 53.75-10.93 53.5-9.75 53.09-8.35L53.09-8.35Q54.15-9.8 55.34-11.28 56.55-12.75 57.87-13.95 59.2-15.15 60.52-15.88 61.84-16.6 63.15-16.6L63.15-16.6Q64.9-16.6 65.52-15.35 66.15-14.1 66.15-12.55L66.15-12.55Q66.15-11.7 65.97-10.83 65.8-9.95 65.57-9.13 65.34-8.3 65.05-7.5L65.05-7.5Q66.05-9.1 67.22-10.48 68.4-11.85 69.75-12.68 71.09-13.5 72.65-13.5L72.65-13.5Q74.5-13.5 75.2-12.4 75.9-11.3 75.9-9.95L75.9-9.95Q75.9-8.65 75.47-7.18 75.05-5.7 74.59-4.38 74.15-3.05 74.15-2.1L74.15-2.1Q74.15-1.55 74.42-1.1 74.7-0.65 75.5-0.65L75.5-0.65Q76.84-0.65 78.09-1.9 79.34-3.15 80.4-4.98 81.44-6.8 82.19-8.45L82.19-8.45 83-7.55Q82.19-5.45 80.92-3.35 79.65-1.25 77.95 0.15 76.25 1.55 74.15 1.55ZM86.59 2.8L86.59 2.8Q84.04 2.8 82.39 1.18 80.74-0.45 80.74-3.75L80.74-3.75Q80.74-6.2 81.72-8.55 82.69-10.9 84.29-12.8 85.89-14.7 87.84-15.8 89.79-16.9 91.79-16.9L91.79-16.9Q93.89-16.9 94.77-15.8 95.64-14.7 95.64-13.35L95.64-13.35Q95.64-11.9 94.97-10.65 94.29-9.4 93.14-9.4L93.14-9.4Q92.19-9.4 91.59-10.3L91.59-10.3Q92.19-10.65 92.74-11.7 93.29-12.75 93.29-14.1L93.29-14.1Q93.29-14.6 93.09-14.85 92.89-15.1 92.29-15.1L92.29-15.1Q90.99-15.1 89.62-13.95 88.24-12.8 87.04-10.98 85.84-9.15 85.09-7.15 84.34-5.15 84.34-3.4L84.34-3.4Q84.34-1.95 85.09-0.75 85.84 0.45 87.94 0.45L87.94 0.45Q89.89 0.45 91.92-0.65 93.94-1.75 95.74-3.75 97.54-5.75 98.59-8.5L98.59-8.5 99.49-7.7Q98.29-4.7 96.22-2.33 94.14 0.05 91.62 1.43 89.09 2.8 86.59 2.8ZM101.79 1.5L101.79 1.5Q99.49 1.5 98.57-0.05 97.64-1.6 97.64-3.75L97.64-3.75Q97.64-6.2 98.54-9.5 99.44-12.8 100.92-16.43 102.39-20.05 104.17-23.53 105.94-27 107.72-29.83 109.49-32.65 111.02-34.33 112.54-36 113.44-36L113.44-36Q114.04-36 114.47-35.35 114.89-34.7 115.14-33.77 115.39-32.85 115.39-32.1L115.39-32.1Q115.39-30.75 114.72-28.58 114.04-26.4 112.82-23.78 111.59-21.15 109.92-18.43 108.24-15.7 106.24-13.23 104.24-10.75 101.94-8.95L101.94-8.95Q101.74-7.7 101.57-6.45 101.39-5.2 101.39-4.15L101.39-4.15Q101.39-2.3 101.97-1.43 102.54-0.55 103.54-0.55L103.54-0.55Q104.84-0.55 106.17-1.75 107.49-2.95 108.69-4.78 109.89-6.6 110.79-8.55L110.79-8.55 111.84-7.95Q109.74-3.6 107.19-1.05 104.64 1.5 101.79 1.5ZM102.69-11.6L102.69-11.6Q104.44-13.4 105.99-15.63 107.54-17.85 108.87-20.15 110.19-22.45 111.19-24.63 112.19-26.8 112.74-28.53 113.29-30.25 113.34-31.25L113.34-31.25Q113.34-31.45 113.29-31.53 113.24-31.6 113.24-31.6L113.24-31.6Q112.84-31.6 111.92-30.43 110.99-29.25 109.77-27.25 108.54-25.25 107.24-22.65 105.94-20.05 104.74-17.2 103.54-14.35 102.69-11.6ZM118.69 1.3L118.69 1.3Q116.89 1.3 115.79 0.35 114.69-0.6 114.69-2.2L114.69-2.2Q114.69-3.6 115.39-5.23 116.09-6.85 116.81-8.43 117.54-10 117.54-11.25L117.54-11.25Q117.54-12.55 116.71-13.33 115.89-14.1 114.94-14.65L114.94-14.65Q113.79-11.8 112.46-9.2 111.14-6.6 110.29-5.2L110.29-5.2 109.64-6.45Q110.34-7.75 111.49-10.18 112.64-12.6 113.69-15.65L113.69-15.65Q113.19-16.15 113.19-16.95L113.19-16.95Q113.19-18.3 114.01-19.4 114.84-20.5 115.49-20.5L115.49-20.5Q116.04-20.5 116.26-19.88 116.49-19.25 116.49-19L116.49-19Q116.49-18.75 116.24-18.07 115.99-17.4 115.94-17.15L115.94-17.15Q115.94-16.55 116.76-16.03 117.59-15.5 118.61-14.78 119.64-14.05 120.44-13.03 121.24-12 121.24-10.4L121.24-10.4Q121.24-8.9 120.59-7.4 119.94-5.9 119.29-4.55 118.64-3.2 118.64-2.25L118.64-2.25Q118.64-1.45 119.04-1.2 119.44-0.95 119.99-0.95L119.99-0.95Q121.19-0.95 122.49-1.7 123.79-2.45 125.01-3.6 126.24-4.75 127.19-6.03 128.14-7.3 128.64-8.35L128.64-8.35 129.64-7.6Q128.69-5.45 126.94-3.4 125.19-1.35 123.04-0.03 120.89 1.3 118.69 1.3ZM130.09 2.95L130.09 2.95Q129.74 2.95 129.54 2.65 129.34 2.35 129.34 2.05L129.34 2.05Q129.34 1.35 130.39-0.18 131.44-1.7 133.14-3.73 134.84-5.75 136.79-7.85L136.79-7.85Q136.44-10.3 136.04-11.73 135.64-13.15 134.54-13.15L134.54-13.15Q133.39-13.15 132.44-12.08 131.49-11 130.59-9.35 129.69-7.7 128.69-6L128.69-6 127.99-7.2Q128.69-8.5 129.31-9.93 129.94-11.35 130.69-12.65 131.44-13.95 132.56-14.75 133.69-15.55 135.39-15.55L135.39-15.55Q137.39-15.55 138.39-14.33 139.39-13.1 139.84-11.15L139.84-11.15Q142.14-13.45 144.01-15.03 145.89-16.6 146.54-16.6L146.54-16.6Q146.84-16.6 147.36-16.35 147.89-16.1 148.09-15.55L148.09-15.55Q147.44-15.55 146.24-14.65 145.04-13.75 143.46-12.2 141.89-10.65 140.24-8.8L140.24-8.8Q140.39-7.8 140.49-6.48 140.59-5.15 140.84-3.88 141.09-2.6 141.61-1.75 142.14-0.9 143.04-0.9L143.04-0.9Q143.89-0.9 144.89-1.65 145.89-2.4 146.86-3.58 147.84-4.75 148.66-6.03 149.49-7.3 149.99-8.4L149.99-8.4 150.69-7.7Q149.89-5.5 148.44-3.43 146.99-1.35 145.21 0 143.44 1.35 141.59 1.35L141.59 1.35Q140.04 1.35 139.16 0.4 138.29-0.55 137.84-2 137.39-3.45 137.14-5.05L137.14-5.05Q135.09-2.7 133.41-0.65 131.74 1.4 130.89 2.55L130.89 2.55Q130.54 2.95 130.09 2.95Z" opacity="1" transform="matrix(1,0,0,1,0,0)" fill="#8bc53f" class="undefined-text-0" data-fill-palette-color="primary" id="text-0"></path></svg></g></svg></g></svg></g></svg></g><g transform="matrix(1,0,0,1,421.1498751947755,0)"><svg viewBox="0 0 132.07231480385033 150.03849404081635" height="150.03849404081635" width="132.07231480385033"><g><svg xmlns="http://www.w3.org/2000/svg" xmlns:xlink="http://www.w3.org/1999/xlink" version="1.1" viewBox="40.805999755859375 30.385997772216797 171.44398498535156 194.76600646972656" x="0" y="0" height="150.03849404081635" width="132.07231480385033" class="icon-icon-0" data-fill-palette-color="accent" id="icon-0"><path d="M205.312 36.377c-3.994-3.993-9.267-5.991-14.489-5.991s-10.496 1.997-14.464 5.991l-26.88 26.88-8.192-8.192c-3.994-3.993-10.47-4.019-14.413-0.077s-3.917 10.419 0.077 14.413l8.729 8.704-64.231 64.231-13.901 30.745 12.263 12.262 30.515-14.183 64.205-64.205 8.73 8.73c3.994 3.993 10.47 4.019 14.413 0.077s3.917-10.419-0.077-14.413l-8.192-8.192 26.855-26.855c3.994-3.993 5.99-9.267 5.99-14.489s-1.997-10.496-5.99-14.489l-0.947-0.947zM94.362 162.637l-22.374 10.393-2.176-2.176 10.215-22.579 62.925-62.899 14.362 14.362-62.951 62.899z" fill="#5d9943" data-fill-palette-color="accent"></path><path d="M40.806 212.352c0 7.066 5.734 12.8 12.8 12.8s12.8-5.734 12.8-12.8-12.8-26.01-12.8-26.01-12.8 18.944-12.8 26.01z" fill="#5d9943" data-fill-palette-color="accent"></path></svg></g></svg></g></svg></g></svg><rect width="395.52" height="107.26833853712752" fill="none" stroke="none" visibility="hidden"></rect></g><defs></defs></svg>